<svg xmlns="http://www.w3.org/2000/svg" xmlns:xlink="http://www.w3.org/1999/xlink" version="1.1" x="0px" y="0px" viewBox="0 0 5669.29 7086.6125" enable-background="new 0 0 5669.29 5669.29" xml:space="preserve"><g display="none"><rect x="-1869.433" y="-64" display="inline" fill="#000000" stroke="#1D1D1B" stroke-miterlimit="10" width="396.368" height="396.368"/><rect x="-1869.433" y="332.863" display="inline" fill="#000000" stroke="#1D1D1B" stroke-width="1.9975" stroke-miterlimit="10" width="791.742" height="791.741"/><rect x="-1473.065" y="-64" display="inline" fill="#000000" stroke="#1D1D1B" stroke-miterlimit="10" width="197.189" height="197.189"/><rect x="-1374.47" y="134.184" display="inline" fill="#000000" stroke="#1D1D1B" stroke-miterlimit="10" width="98.594" height="98.594"/><rect x="-1423.768" y="183.481" display="inline" fill="#000000" stroke="#1D1D1B" stroke-miterlimit="10" width="49.298" height="49.297"/><rect x="-3120.776" y="-64.004" display="inline" fill="#000000" stroke="#1D1D1B" stroke-miterlimit="10" width="594.553" height="594.553"/><rect x="-3120.776" y="-361.281" display="inline" fill="#000000" stroke="#1D1D1B" stroke-miterlimit="10" width="297.276" height="297.277"/><rect x="-2823.5" y="-361.281" display="inline" fill="#000000" stroke="#1D1D1B" stroke-miterlimit="10" width="148.638" height="148.639"/><rect x="-2749.18" y="-212.642" display="inline" fill="#000000" stroke="#1D1D1B" stroke-miterlimit="10" width="74.319" height="74.319"/></g><g display="none"><path display="inline" fill="#000000" stroke="#FFFFFF" stroke-miterlimit="10" d="M4025.633,2386.729"/><path display="inline" d="M2833.856,1068.706L394.783,5293.303h4878.143L2833.856,1068.706z M3313.363,2499.43l-482.231,367.463   l-479.593-367.222l0.141-0.24h-0.454l-230.713,174.875l710.618-1224.961l710.617,1224.961L3313.363,2499.43z"/><path display="inline" d="M1014.928,1663.263l-1.902,3.294l-0.17-0.294L424.218,2685.813c0.039,0.129,0.078,0.259,0.116,0.388   l-44.991,77.928v2125.442L1628.49,2725.982L1014.928,1663.263z M718.918,2548.896l291.215-501.995l293.561,506.038   l-290.447,221.322L718.918,2548.896z"/><path display="inline" d="M5291.658,4966.486v-1508.93l-692.67-1199.74l-0.816,1.414l-0.814-1.414l-372.568,645.312   c0.305,0.416,0.6,0.843,0.904,1.261l-62.293,107.895L5291.658,4966.486z M4594.629,2638.455l137.643,237.266l-134.375,102.395   l-138.699-106.201L4594.629,2638.455z"/></g><g display="none"><path display="inline" d="M2834.645,1431.803c806.381,0,1534.949,333.12,2055.625,869.243   c-97.092-697.678-979.971-1243.927-2054.77-1243.927c-1073.751,0-1955.959,545.184-2054.487,1241.886   C1301.555,1764.08,2029.291,1431.803,2834.645,1431.803z"/><path display="inline" d="M2834.645,1827.673c-1044.153,0-1957.855,558.521-2458.657,1393.104   C876.789,4055.358,1790.491,4613.88,2834.645,4613.88S4792.5,4055.358,5293.303,3220.776   C4792.5,2386.194,3878.799,1827.673,2834.645,1827.673z M2835.5,4113.46c-493.016,0-892.684-399.668-892.684-892.684   c0-493.017,399.668-892.685,892.684-892.685s892.684,399.668,892.684,892.685C3728.184,3713.792,3328.516,4113.46,2835.5,4113.46z"/><path display="inline" d="M2834.645,2606.909c-338.557,0-613.013,274.455-613.013,613.013s274.456,613.013,613.013,613.013   c338.559,0,613.014-274.455,613.014-613.013S3173.203,2606.909,2834.645,2606.909z M3032.828,3221.274   c-109.453,0-198.184-88.73-198.184-198.185s88.73-198.185,198.184-198.185c109.455,0,198.186,88.73,198.186,198.185   S3142.283,3221.274,3032.828,3221.274z"/></g><g display="none"><path display="inline" d="M2834.644,1431.803c806.381,0,1534.949,333.12,2055.625,869.243   c-97.092-697.678-979.971-1243.927-2054.77-1243.927c-1073.751,0-1955.959,545.184-2054.487,1241.886   C1301.554,1764.081,2029.29,1431.803,2834.644,1431.803z"/><path display="inline" d="M2834.644,1827.673c-1044.153,0-1957.855,558.521-2458.657,1393.104   c500.802,834.582,1414.504,1393.104,2458.657,1393.104s1957.855-558.521,2458.658-1393.104   C4792.499,2386.195,3878.798,1827.673,2834.644,1827.673z M2834.644,4244.387c-848.709,0-1591.386-410.385-1998.447-1023.609   c407.062-613.226,1149.737-1023.611,1998.447-1023.611c848.709,0,1591.385,410.384,1998.447,1023.611   C4426.028,3834.002,3683.354,4244.387,2834.644,4244.387z"/><path display="inline" d="M2834.644,2606.91c-338.557,0-613.013,274.456-613.013,613.012   c0,338.559,274.456,613.014,613.013,613.014c338.559,0,613.014-274.455,613.014-613.014   C3447.657,2881.365,3173.202,2606.91,2834.644,2606.91z M3032.827,3221.275c-109.453,0-198.184-88.73-198.184-198.186   c0-109.453,88.73-198.184,198.184-198.184c109.455,0,198.186,88.731,198.186,198.184   C3231.013,3132.545,3142.282,3221.275,3032.827,3221.275z"/></g><g display="none"><path display="inline" d="M2652.531,2412.68c0,58.352-47.301,105.653-105.65,105.653h-217.444   c-58.346,0-105.646-47.301-105.646-105.653v-217.425c0-58.343,47.301-105.642,105.646-105.642h217.444   c58.35,0,105.65,47.299,105.65,105.642V2412.68z"/><path display="inline" d="M2040.059,3025.137c0,58.346-47.301,105.648-105.65,105.648h-217.444   c-58.348,0-105.646-47.303-105.646-105.648v-217.418c0-58.351,47.299-105.651,105.646-105.651h217.444   c58.349,0,105.65,47.3,105.65,105.651V3025.137z"/><path display="inline" d="M1427.586,3025.137c0,58.346-47.301,105.648-105.653,105.648h-217.442   c-58.347,0-105.648-47.303-105.648-105.648v-217.418c0-58.351,47.301-105.651,105.648-105.651h217.442   c58.352,0,105.653,47.3,105.653,105.651V3025.137z"/><path display="inline" d="M2040.06,3637.582c0,58.352-47.301,105.654-105.65,105.654h-217.444   c-58.348,0-105.646-47.303-105.646-105.654v-217.43c0-58.336,47.299-105.637,105.646-105.637h217.444   c58.349,0,105.65,47.301,105.65,105.637V3637.582z"/><path display="inline" d="M1427.587,3637.582c0,58.352-47.301,105.654-105.653,105.654h-217.442   c-58.347,0-105.648-47.303-105.648-105.654v-217.43c0-58.336,47.301-105.637,105.648-105.637h217.442   c58.352,0,105.653,47.301,105.653,105.637V3637.582z"/><path display="inline" d="M1951.728,591.055c0-103.512-83.918-187.43-187.434-187.43h-181.795   c-103.518,0-187.434,83.918-187.434,187.43v522.031c0,103.514,83.916,187.43,187.434,187.43h181.795   c103.516,0,187.434-83.916,187.434-187.43V591.055z"/><path display="inline" d="M3420.797,591.083c0-103.514-83.918-187.43-187.438-187.43h-181.775   c-103.52,0-187.436,83.916-187.436,187.43v522.004c0,103.514,83.916,187.43,187.436,187.43h181.775   c103.52,0,187.438-83.916,187.438-187.43V591.083z"/><path display="inline" d="M2941.908,2518.333h217.445c9.9,0,19.445-1.463,28.535-4.012c13.926-7.986,28.018-15.731,42.199-23.322   c21.395-19.336,34.918-47.213,34.918-78.319v-217.425c0-58.343-47.301-105.642-105.652-105.642h-217.445   c-58.344,0-105.645,47.299-105.645,105.642v217.425C2836.264,2471.032,2883.564,2518.333,2941.908,2518.333z"/><path display="inline" d="M2443.033,3314.516h-113.595c-58.345,0-105.646,47.299-105.646,105.643v217.424   c0,58.352,47.301,105.654,105.646,105.654h13.088C2355.797,3593.217,2390.312,3449.305,2443.033,3314.516z"/><path display="inline" d="M2343.86,4035.973h-9.625h-228.597H1010.581c-174.346,0-315.68-141.34-315.68-315.686v-929.763v-391.859   l-0.002-409.029c0-108.965,88.336-197.299,197.301-197.299h3076.933c108.971,0,197.307,88.334,197.307,197.299l0.002,84.003   v250.583v21.81c105.699,18.465,207.74,47.569,304.979,86.172v-46.331v-312.233v-718.126c0-348.684-259.492-631.356-579.588-631.356   h-285.365v372.135c0,207.033-167.834,374.867-374.867,374.867h-178.303c-207.035,0-374.869-167.834-374.869-374.867V724.157   h-541.013v372.135c0,207.033-167.836,374.867-374.867,374.867h-178.303c-207.033,0-374.867-167.834-374.867-374.867V724.157   H969.515c-320.102,0-579.596,282.672-579.596,631.356v2378.384c0,348.678,259.494,631.342,579.596,631.342h1136.124h296.04h10.867   C2378.309,4259.955,2354.974,4149.756,2343.86,4035.973z"/><path display="inline" d="M3877.48,2322.807v-127.552c0-58.343-47.301-105.642-105.652-105.642h-217.445   c-58.344,0-105.645,47.299-105.645,105.642v192.568C3584.783,2347.156,3728.625,2324.555,3877.48,2322.807z"/><path display="inline" d="M2652.531,2940.92v-133.212c0-58.343-47.3-105.643-105.65-105.643h-217.444   c-58.345,0-105.646,47.3-105.646,105.643v217.425c0,58.352,47.301,105.652,105.646,105.652h199.704   C2565.724,3064.396,2607.005,3000.959,2652.531,2940.92z"/><path display="inline" d="M4544.629,3294.906c-31.676,0-60.324,12.914-81.016,33.74l-585.006,583.6l-406.48-405.066   c-20.691-20.84-49.34-33.754-81.016-33.754c-63.062,0-114.191,51.141-114.191,114.191c0,37.139,17.559,60.684,45.275,90.904   l556.412,530.744l734.936-709.277c27.719-30.207,45.277-53.752,45.277-90.891   C4658.82,3346.033,4607.691,3294.906,4544.629,3294.906z"/><path display="inline" d="M3896.17,2506.425c-759.977,0-1376.045,616.079-1376.045,1376.049   c0,759.984,616.068,1376.047,1376.045,1376.047c759.971,0,1376.055-616.062,1376.055-1376.047   C5272.225,3122.504,4656.141,2506.425,3896.17,2506.425z M3896.17,4953.549c-591.537,0-1071.065-479.535-1071.065-1071.074   s479.528-1071.071,1071.065-1071.071c591.539,0,1071.074,479.532,1071.074,1071.071S4487.709,4953.549,3896.17,4953.549z"/></g><g><g><path d="M5032.635,2383.932c33.038-67.809,50.375-142.189,50.727-217.617c0-280.155-227.111-507.265-507.266-507.265h-10.145    c-40.535-199.625-196.551-355.64-396.176-396.176c-274.551-55.75-542.314,121.624-598.064,396.176h-10.145    c-77.53-0.487-154.127,16.911-223.84,50.842c-250.389,121.873-354.572,423.651-232.699,674.04    c-172.273,122.952-268.316,326.562-253.633,537.701c24.349,309.939,325.664,563.572,637.633,563.572h376.898v833.101H584.018    c-115.239,0-208.658,93.419-208.658,208.658c0,115.239,93.419,208.658,208.658,208.658h4018.15    c115.239,0,208.658-93.419,208.658-208.658c0-115.238-93.419-208.658-208.658-208.658h-330.43v-833.101h376.898    c311.968,0,613.283-253.633,637.632-563.572C5300.952,2710.495,5204.909,2506.885,5032.635,2383.932z"/><path d="M831.782,3725.382h28.691v444.99c0,7.542,5.181,13.657,11.568,13.657h177.944c6.386,0,11.564-6.115,11.564-13.657v-444.99    H2476.2v444.99c0,7.542,5.178,13.657,11.568,13.657h177.943c6.387,0,11.565-6.115,11.565-13.657v-444.99h29.806    c11.916,0,21.576-9.66,21.576-21.576v-82.076c0-11.916-9.66-21.576-21.576-21.576h-180.39v-166.602h80.298    c25.307,0,45.82-20.513,45.82-45.82v-116.999c0-25.304-20.512-45.82-45.82-45.82h-80.298v-166.821h80.298    c25.307,0,45.82-20.516,45.82-45.82v-116.999c0-25.307-20.512-45.82-45.82-45.82H931.652c-25.307,0-45.82,20.513-45.82,45.82    v116.999c0,25.304,20.513,45.82,45.82,45.82h80.298v166.821h-80.298c-25.307,0-45.82,20.516-45.82,45.82v116.999    c0,25.307,20.513,45.82,45.82,45.82h80.298v166.602H831.782c-11.916,0-21.576,9.66-21.576,21.576v82.076    C810.207,3715.722,819.867,3725.382,831.782,3725.382z M2425.711,3600.154h-605.9v-166.602h605.9V3600.154z M2425.711,3224.914    h-605.9v-166.821h605.9V3224.914z M1112.931,3058.093h605.9v166.821h-605.9V3058.093z M1112.931,3433.552h605.9v166.602h-605.9    V3433.552z"/></g></g><g display="none"><path display="inline" d="M5030.656,4413.988h-545.083v-406.231c374.771-97.892,658.156-551.327,658.156-1095.923   c0-616.076-362.656-1115.505-810.014-1115.505S3523.7,2295.758,3523.7,2911.834c0,520.698,259.061,958.058,609.364,1081.003   v421.151H2222.793V3413.646h446.017c369.184,0,725.76-300.147,754.572-666.926c17.373-249.858-96.276-490.811-300.147-636.311   c39.099-80.243,59.615-168.266,60.028-257.527c0-331.535-268.76-600.295-600.294-600.295h-12.005   c-47.962-236.229-232.597-420.855-468.826-468.826c-324.905-65.979-641.773,143.929-707.743,468.826h-12.006   c-91.75-0.575-182.393,20.018-264.895,60.165c-296.308,144.23-419.593,501.347-275.372,797.656   c-203.871,145.5-317.529,386.453-300.147,636.311c28.812,366.779,385.388,666.926,754.572,666.926h446.017v1000.343H631.356   c-139.852,0-254.276,108.052-254.276,240.116c0,132.063,114.424,240.115,254.276,240.115h4399.3   c139.852,0,254.276-108.052,254.276-240.115C5284.932,4522.041,5170.508,4413.988,5030.656,4413.988z"/></g><g display="none"><g display="inline"><path d="M3061.287,1057.56c-32.812-15.933-68.132-23.755-103.263-23.755c-52.092,0-103.771,17.196-146.276,50.643    l-1139.804,896.926H614.154c-130.606,0-236.484,105.878-236.484,236.484v1219.359c0,130.607,105.878,236.484,236.484,236.484    h1040.502l1157.083,910.607c42.504,33.45,94.191,50.649,146.285,50.649c35.131,0,70.445-7.82,103.258-23.753    c81.469-39.558,133.191-122.168,133.191-212.732V1270.29C3194.474,1179.728,3142.754,1097.118,3061.287,1057.56z"/><g><path d="M3727.635,2039.102c-36.94-52.975-97.588-84.602-162.232-84.602c-40.553,0-79.597,12.284-112.903,35.518     c-43.31,30.192-72.269,75.44-81.542,127.41c-9.272,51.971,2.25,104.442,32.445,147.747     c121.281,173.939,185.388,373.361,185.388,576.709c0,199.736-62.368,396.375-180.359,568.654     c-61.582,89.902-38.536,213.151,51.379,274.746c33.036,22.619,71.613,34.575,111.56,34.575     c65.298,0,126.291-32.134,163.156-85.957c163.242-238.326,249.527-512.202,249.527-792.019     C3984.053,2557.302,3895.386,2279.705,3727.635,2039.102z"/><path d="M4212.85,1577.715c-37.687-46.274-93.56-72.813-153.294-72.813c-45.286,0-89.585,15.766-124.739,44.396     c-40.934,33.342-66.431,80.627-71.796,133.144c-5.365,52.515,10.043,103.977,43.385,144.905     c241.162,296.048,368.634,646.869,368.634,1014.536c0,364.012-125.376,711.994-362.574,1006.329     c-68.373,84.857-54.967,209.52,29.888,277.894c35.017,28.212,79.027,43.749,123.924,43.749     c60.137,0,116.253-26.838,153.961-73.632c294.435-365.37,450.064-799.114,450.064-1254.34     C4670.302,2382.236,4512.117,1945.093,4212.85,1577.715z"/><path d="M4666.502,1155.471c-37.53-42.843-91.74-67.415-148.729-67.415c-47.875,0-94.097,17.379-130.154,48.941     c-81.974,71.79-90.262,196.895-18.476,278.881c359.192,410.183,549.052,903.309,549.052,1426.066     c0,519.027-187.592,1009.378-542.499,1418.044c-71.428,82.268-62.614,207.342,19.657,278.821     c35.955,31.207,81.955,48.394,129.526,48.394c57.286,0,111.69-24.798,149.27-68.042     c418.239-481.613,639.309-1061.585,639.309-1677.217C5313.457,2221.98,5089.745,1638.809,4666.502,1155.471z"/></g></g></g><g display="none"><g display="inline"><path d="M4099.107,1330.944c0-90.426-51.642-172.91-132.985-212.409c-32.762-15.909-68.029-23.719-103.107-23.719    c-52.013,0-103.615,17.169-146.055,50.566l-1134.474,892.732l1516.622,1516.621V1330.944z"/><path d="M1286.562,2277.079v1217.516c0,130.408,105.718,236.126,236.126,236.126h1038.929l1155.334,909.23    c42.439,33.399,94.049,50.573,146.063,50.573c35.078,0,70.338-7.809,103.101-23.718c30.317-14.72,56.492-35.424,77.422-60.272    L1481.742,2044.736C1370.888,2064.156,1286.562,2160.662,1286.562,2277.079z"/><path d="M4529.051,4254.443L1396.238,1121.63c-88.193-88.193-224.233-96.47-302.311-18.392    c-78.078,78.078-69.802,214.118,18.392,302.311l3132.813,3132.813c88.193,88.193,224.233,96.47,302.311,18.392    C4625.521,4478.677,4617.245,4342.637,4529.051,4254.443z"/></g></g><text x="0" y="5684.29" fill="#000000" font-size="5px" font-weight="bold" font-family="'Helvetica Neue', Helvetica, Arial-Unicode, Arial, Sans-serif">Created by Bruno Bosse</text><text x="0" y="5689.29" fill="#000000" font-size="5px" font-weight="bold" font-family="'Helvetica Neue', Helvetica, Arial-Unicode, Arial, Sans-serif">from the Noun Project</text></svg>